<svg xmlns="http://www.w3.org/2000/svg" viewBox="0 0 256 320" fill="none">
  <path
    fill="#ffffff"
    fill-opacity="0.08"
    d="M128 24c-8 0-16 6-18 14l-4 18c-32 10-58 36-66 68-6 24-2 50 12 70-18 10-30 30-30 52 0 34 28 62 62 62h8v20c0 16 12 28 28 28h56c16 0 28-12 28-28v-20h8c34 0 62-28 62-62 0-22-12-42-30-52 14-20 18-46 12-70-8-32-34-58-66-68l-4-18c-2-8-10-14-18-14zm-6 88c36 0 66 30 66 66 0 18-8 34-20 46l-22 24v42h-48v-42l-22-24c-12-12-20-28-20-46 0-36 30-66 66-66z"
  />
  <path
    fill="#ffffff"
    fill-opacity="0.05"
    d="M72 248h112v28c0 22-18 40-40 40H112c-22 0-40-18-40-40v-28z"
  />
  <path
    fill="#ffffff"
    fill-opacity="0.06"
    d="M156 56c12 8 22 20 28 34 6 14 8 30 4 44-8 2-16 6-22 12-10 10-16 24-16 38 0 4 0 8 2 12-6-18-18-34-34-44-16-10-36-14-54-10 4-28 18-54 40-72 14-12 32-18 52-14z"
  />
</svg>
