<svg xmlns="http://www.w3.org/2000/svg" viewBox="0 0 128 128" fill="none">
  <circle cx="64" cy="64" r="58" fill="#f5f5f4" fill-opacity="0.12" />
  <path
    fill="#f5f5f4"
    d="M64 18c-4 0-7 3-7 7v8c-14 4-24 16-24 31 0 8 3 15 8 21l-6 18c-1 3 1 6 4 6h50c3 0 5-3 4-6l-6-18c5-6 8-13 8-21 0-15-10-27-24-31v-8c0-4-3-7-7-7zm-2 34c10 0 18 8 18 18s-8 18-18 18-18-8-18-18 8-18 18-18z"
  />
  <rect x="34" y="96" width="60" height="12" rx="4" fill="#d6d3d1" />
  <rect x="28" y="108" width="72" height="10" rx="3" fill="#e7e5e4" />
</svg>
